<svg xmlns="http://www.w3.org/2000/svg" width="20in" height="5in" viewBox="0 0 4500 1125">
  <path fill="none" stroke="#000" d="M1742 570c-2 7-12 24-16 31-13 23-23 39-38 61-4 6-14 21-21 22-4 0-7-3-10-5l-5-6c-6-7-12-21-10-30 1-3 4-5 7-8l9-13 32-50c25-44 49-88 66-136 8-24 13-45 17-70l3-30 5-48c0-6 1-24 5-29 5-4 12 0 16 4 9 8 14 20 14 32 0 30-4 60-9 89l-4 41-6 51-17 99-8 48 14-17c10-11 25-25 38-34 11-8 28-18 42-18 9 0 14 0 23 4 17 7 36 36 36 55v13c0 18-11 34-23 46-26 26-65 40-101 40l17 29 12 20 19 32c4 5 7 10 12 13 11 6 23 2 34-4 22-11 41-32 55-51 20-26 36-54 54-82 17-27 38-58 59-83 15-19 25-33 48-44 9-4 14-7 24-7h6c14 0 29 8 39 17 11 9 22 22 28 35l5 16 5 15 1 18-2 21-1 25-1 14v17l-1 16v12l1 10c0 16 2 32 4 48l5 23c12-2 21-11 29-20a615 615 0 0 0 118-257l6-57 8-76 11-97 3-23c0-4 0-9 3-11 6-5 14 3 18 7 4 5 9 14 10 21l1 10c2 7 4 6 4 17v26l-1 19-1 10c-2 28-7 55-12 82l-14 86-4 17-3 33-7 74-2 33-2 23c-2 22-3 33 0 55 2 12 4 25 20 24 10-1 19-9 26-16 14-14 29-38 40-55 23-32 45-66 65-100 14-25 30-59 52-78 17-15 37-27 61-28 9 0 16 2 24 5 6 2 14 6 19 10 13 11 14 22 18 27l4 6c4 5 8 13 9 19l1 17-3 38v94c0 10 2 28 5 38 1 4 2 11 5 13 2 2 6 1 8 0 6-1 12-5 17-9 13-11 23-24 33-38 3-4 12-19 15-21 5-4 11 0 15 4 8 7 15 20 14 31 0 8-10 20-15 26-15 21-37 52-65 54-13 1-21-7-29-15-16-16-26-43-31-65-1-8-1-21-4-27l-15 26c-15 26-27 41-48 62-11 11-24 23-40 23-7 0-11 0-18-2-7-3-12-9-17-14-12-12-24-29-31-45l-10-25-18 27-12 17c-11 16-28 40-48 45l-11 1c-7 0-14-2-21-6-6-3-12-7-16-12-6-6-12-14-16-22-9-17-16-47-16-67 0-10 1-23-2-33a618 618 0 0 1-75 123c-11 14-31 28-49 17l-10-8-8-9c-9-11-17-33-21-47l-6-31c-2 8-10 21-14 28-17 27-48 62-83 62-20 0-30-8-43-23-15-18-27-46-27-70 0-8 1-24-1-31-4 9-16 26-22 35-16 25-38 54-63 70-19 13-41 21-63 9-20-11-35-34-46-53l-51-85-22 56c-6 16-10 36-13 52l-4 27c-4 6-11 1-15-2-8-8-15-20-15-31 0-18 7-52 11-71l20-112 6-37c1-6 3-17 2-22Zm1552-17c1-6 8-19 11-25l19-41c20-45 41-89 55-137l13-54c1-5 3-16 7-19 5-3 12 3 15 6 6 6 12 17 13 25v13l-8 58-7 52-6 62-2 26-1 10v11l-1 15-1 76-1 17c0 10 1 23-1 33l31-21a1020 1020 0 0 0 97-93c3-4 7-11 13-12 7-1 14 4 18 9 13 14 12 28 21 42l45 55c15 21 31 53 39 78l5 22c30-22 52-50 63-85 3-7 5-12 6-20l2-26c2-19 5-39 9-58 2-7 5-26 10-31 6-5 14 2 18 6 5 6 12 18 13 26v15c0 20-10 66-15 86-4 16-8 24-8 42v56c0 7 3 23 5 30 1 3 2 8 5 10 7 5 23 0 30-2 29-10 49-30 72-49l13-11 10-9c5-2 10 2 14 5 8 7 15 20 14 31 0 7-6 11-11 16l-16 13-21 18c-19 15-48 35-73 35-8 0-15 0-22-3-8-3-13-9-19-15-10-11-16-22-21-36-5-13-10-27-10-41l-21 23-22 19a212 212 0 0 1-96 47l-11-2h-7c-14-2-26-8-37-17-8-8-14-15-20-24-5-8-15-31-15-40 0-12 7-14 15-7 6 5 11 12 14 19 3 8 3 14 11 19 7 4 17 5 25 5 25 0 41-12 53-33 5-8 9-18 11-27 1-12-8-30-13-40l-8-15c-18-29-46-50-61-81-13 19-35 38-52 53s-33 31-51 44l-36 23c-4 2-13 6-15 9s-1 8 0 11l1 22 3 28 3 13 7 9c4 6 9 15 9 22 0 9-4 14-13 9-6-3-16-14-20-20-11-17-16-40-18-59-2-12-3-10-3-23-15 3-28 8-44 8a368 368 0 0 1-76-8c-3-1-11-5-14-4l-8 10-18 23c-15 18-36 40-56 53-10 7-21 12-34 9-9-2-17-8-24-15-5-6-10-12-13-19-6-10-12-22-12-34v-11l1-8c3-7 11-2 15 1 7 6 13 16 14 25 2 6-1 13 4 16 3 2 6 1 9 0 7-3 14-8 20-12 27-20 42-41 63-66-9-7-15-16-21-26-24-40-21-100 18-130 22-18 52-22 79-17l22 7Zm487-179c6-1 9 1 13 5 7 6 14 19 14 28 0 7-3 19-4 26l-6 45-4 23c-1 3-1 8-5 9-5 2-11-3-14-6-9-9-13-20-13-33l4-23 7-50 4-21 4-3ZM703 625c-6-5-22-26-28-33l-33-40-26-33-19-19c-13-15-25-36-26-56a26 26 0 0 1 3-13c10-16 30 4 38 12l15 15 38 47 38 47 24 28c2 2 6 9 9 8s12-11 14-13l34-34 12-11c29-27 65-59 98-81 32-22 65-41 102-54 22-8 57-17 81-17h36c16 0 43 5 58 9 31 7 56 19 81 39l16 14a298 298 0 0 1 79 179c0 25 1 36-7 61-11 36-35 69-63 94-11 10-22 20-35 28-42 27-91 43-141 45l-13 1h-9l-10-1-19-1a502 502 0 0 1-238-106l-31-28c-2-2-11-12-14-13s-6 4-8 6l-20 22-58 67-13 17c-3 4-6 9-11 11-8 3-19-5-25-10-12-11-23-31-27-46-1-6-3-13-2-19 2-12 19-30 27-39l51-59 22-24Zm98 35a424 424 0 0 0 234 98l13 1 10-1 21-1c44-6 86-21 122-47 31-22 56-50 72-85a113 113 0 0 0 7-82c-4-13-9-26-17-36-12-14-29-22-46-28-19-6-52-12-72-12h-28c-23 0-58 9-79 17-63 23-119 66-169 110l-46 43c-6 6-18 17-22 23Zm2572-175-12 24-19 42-8 17-3 8 12 13 16 19 10 14v-15l1-12v-30l1-17 2-63Zm-1629 83h-1l1 1v-1Zm407 12c-14 3-32 14-42 25-7 9-14 24-19 35-12 24-26 50-34 76-6 21-7 43-7 65 0 7 1 22 6 28 5 5 15 5 21 3 15-3 30-13 41-24l18-22c29-41 37-79 45-127l5-38-1-9-6-5c-9-6-17-8-27-7Zm520 6-15 3c-30 9-50 34-66 60-9 15-22 38-28 54l-8 31c-4 14-8 29-9 44 0 4 1 12 3 16 2 5 9 16 13 19 4 2 11 1 15 0 12-3 24-16 32-24 18-18 31-38 44-60a265 265 0 0 0 43-123c0-3 2-10 0-13-3-4-19-7-24-7Zm604 4c-7-2-17 0-24 1-27 6-47 23-55 50-6 20-8 48 17 55a782 782 0 0 0 62-106Zm-1382 9h-4c-24 0-51 24-67 40-6 6-18 19-21 26 25-1 62-20 78-39 6-8 12-17 14-27Zm1366 112 20 2c21 2 39 1 60-5l17-6c2 0 5-1 6-3 2-2 1-5 1-7l-3-19c-1-8-4-26-7-33-4-8-11-17-17-23-5-5-12-11-19-13l-12 24-27 52-19 31Zm-1487-87h-1l1 1v-1Z" style="fill:#979797;fill-opacity:1"/>
</svg>
